<?xml version="1.0" encoding="utf-8"?>
<!-- Generator: Adobe Illustrator 23.0.0, SVG Export Plug-In . SVG Version: 6.00 Build 0)  -->
<svg version="1.1" id="图层_1" xmlns="http://www.w3.org/2000/svg" xmlns:xlink="http://www.w3.org/1999/xlink" x="0px" y="0px"
	 viewBox="0 0 256 256" style="enable-background:new 0 0 256 256;" xml:space="preserve">
<title>资源 1</title>
<g>
	<g id="图层_3">
		<g>
			<path fill="#C7000B" d="M128,133.1l-98.3,27.8c2.8,10.9-1.6,25.6,4.8,34.5c6.7,9.3,23,9.4,32.2,16.2c9.2,6.8,14.3,22.4,25.4,26
				c10.8,3.6,24.2-5.9,36.3-5.9c11.6,0,24.6,9.5,35.1,6.2c11.1-3.6,16.1-19,25.4-25.7c9.3-6.6,25.6-6.6,32.4-15.8
				c6.8-9.2,1.3-24.2,4.9-35.3L128,133.1z"/>
			<g>
				<path fill="#F39800" d="M107.2,125.7c0-1.5-0.9-2.9-2.2-3.5L29,96.9c-4.1,10.3-16.3,19.8-16.3,31.3s13,20.9,16.5,31.3l75.6-30.2
					C106.2,128.7,107.2,127.3,107.2,125.7z"/>
				<path fill="#F39800" d="M111.3,112.6c0.5-1.1,0.4-2.3-0.1-3.4L66.3,44.6c-9.4,5.9-24.6,6.2-31.1,15c-6.9,9.2-2.2,24.6-5.6,35.7
					l78.1,19.5C109.3,114.9,110.7,114,111.3,112.6z"/>
				<path fill="#F39800" d="M121.8,105.2c1.3-0.5,2.2-1.7,2.4-3.1l2.9-77.9c-11.4-0.4-24-9.4-34.2-6.1c-11,3.5-16.1,18.9-25.2,25.6
					l50,60.7C118.7,105.5,120.4,105.8,121.8,105.2z"/>
				<g>
					<path fill="#F39800" d="M149.3,125.7c0-1.5,0.9-2.9,2.2-3.5L227,96.9c4.1,10.3,16.3,19.8,16.3,31.3c0,11.5-13,20.9-16.5,31.3
						l-75.2-30.2C150.2,128.7,149.3,127.3,149.3,125.7z"/>
					<path fill="#F39800" d="M144.9,112.2c-0.5-1.1-0.5-2.4,0.1-3.4l44.7-64.1c9.4,5.9,24.6,6.2,31.1,15c6.7,9.2,2.1,24.6,5.6,35.7
						l-78,19.2C146.9,114.5,145.5,113.6,144.9,112.2z"/>
					<path fill="#F39800" d="M134.2,105.2c-1.3-0.5-2.2-1.7-2.3-3.1l-3-77.9c11.4-0.4,24.1-9.4,34.4-6.1c11,3.5,16.1,18.9,25.2,25.6
						l-50,60.7C137.2,105.5,135.6,105.8,134.2,105.2z"/>
				</g>
			</g>
		</g>
	</g>
</g>
</svg>
